<?xml version="1.0" encoding="utf-8"?>
<svg viewBox="0 0 23000 9900" width="23000" height="9900" xmlns="http://www.w3.org/2000/svg" xmlns:bx="https://boxy-svg.com">
  <g transform="matrix(0.3710770010948181, 0, 0, 0.3710770010948181, 822.2415771484375, 270.1441955566406)">
    <g id="layer1" transform="translate(-21.75 -11.093)">
      <g id="g3219" style="stroke:#000000" transform="matrix(176.860794, 0, 0, 178.263779, -13613.368164, -97704.257812)">
        <path id="path2427" style="fill-rule:evenodd;stroke:#000000;stroke-width:2;fill:#ffffff" d="m67.614 570.42c24.468-13.1 45.356-11.78 66.046-23.06 11.09 2.43 19.35 1.45 26.99-0.27 23.43 10.79 44.03 12.52 66.04 23.59-1.83 11.56-5.86 21.55-12.58 29.61-8.15-4.37-15.87-6.1-23.32-6.29l-0.53 78.62c-32.12 5.99-59.35 3.4-85.96-0.26l-0.26-78.09c-9.369-0.28-16.499 3.19-23.847 6.29-7.067-9.64-10.369-19.81-12.579-30.14z"
        />
        <path id="path3205" style="stroke:#000000;stroke-width:1px;fill:none" d="m133.39 547.62c-0.23 2.32 1.7 12.73 13.89 13.36 11.94 0.62 14.28-11.53 13.89-13.1" />
        <path id="path3207" style="stroke:#000000;stroke-width:1px;fill:none" d="m128.21 550.42c-0.23 2.32 4.58 15.11 18.35 15.46 14.03 0.36 19.78-14.68 19.39-16.25" />
        <path id="path3209" style="stroke:#000000;stroke-width:1px;fill:none" d="m134.52 552.33c8.54 2.24 16.08 1.76 25.32-0.2" />
        <path id="path3213" style="stroke:#000000;stroke-width:1px;fill:none" d="m104.16 558.28c2.58 9.89 6.84 21.49-0.26 35.38" />
        <path id="path3215" style="stroke:#000000;stroke-width:1px;fill:none" d="m190.38 558.48c-2.58 9.89-6.84 21.49 0.26 35.38" />
      </g>
      <g id="g3272" style="stroke:#000000" transform="matrix(176.860794, 0, 0, 178.263779, 18185.960938, -97704.257812)">
        <path id="path3274" style="fill-rule:evenodd;stroke:#000000;stroke-width:2;fill:#ffffff" d="m67.614 570.42c24.468-13.1 45.356-11.78 66.046-23.06 11.09 2.43 19.35 1.45 26.99-0.27 23.43 10.79 44.03 12.52 66.04 23.59-1.83 11.56-5.86 21.55-12.58 29.61-8.15-4.37-15.87-6.1-23.32-6.29l-0.53 78.62c-32.12 5.99-59.35 3.4-85.96-0.26l-0.26-78.09c-9.369-0.28-16.499 3.19-23.847 6.29-7.067-9.64-10.369-19.81-12.579-30.14z"
        />
        <path id="path3284" style="stroke:#000000;stroke-width:1px;fill:none" d="m128.67 549.91c8.01 6.19 27.91 6.58 36.62-0.2" />
        <path id="path3286" style="stroke:#000000;stroke-width:1px;fill:none" d="m104.16 558.28c2.58 9.89 6.84 21.49-0.26 35.38" />
        <path id="path3288" style="stroke:#000000;stroke-width:1px;fill:none" d="m190.38 558.48c-2.58 9.89-6.84 21.49 0.26 35.38" />
      </g>
      <path id="text3455" style="fill: rgb(0, 0, 0);" d="M 27135.33 302.423 L 27135.33 441.563 L 26701.854 441.563 L 26701.854 1524.536 L 26535.41 1524.536 L 26535.41 441.563 L 26101.934 441.563 L 26101.934 302.423 M 27504.148 998.141 L 27504.148 1132.496 L 27062.283 1132.496 L 27062.283 998.141 M 28483.66 342.534 L 28483.66 503.835 C 28421.391 473.775 28361.52 451.381 28306.436 436.654 C 28250.154 421.927 28196.271 414.502 28144.781 414.502 C 28054.975 414.502 27985.521 431.985 27936.43 466.949 C 27887.328 501.911 27863.383 551.485 27863.383 615.912 C 27863.383 669.916 27878.949 710.869 27911.279 738.654 C 27944.809 765.952 28005.879 788.104 28096.883 804.989 L 28196.271 825.465 C 28319.613 848.934 28410.617 890.366 28469.287 949.884 C 28527.961 1008.794 28557.898 1087.949 28557.898 1187.333 C 28557.898 1305.764 28517.186 1395.453 28438.154 1456.643 C 28359.125 1517.712 28242.975 1548.248 28089.699 1548.248 C 28031.023 1548.248 27969.953 1541.781 27904.098 1528.611 C 27839.43 1515.556 27772.379 1496.159 27701.725 1470.535 L 27701.725 1300.259 C 27768.781 1337.852 27834.645 1366.235 27899.303 1385.397 C 27963.969 1404.436 28027.43 1414.009 28089.699 1414.009 C 28183.098 1414.009 28256.145 1395.453 28307.633 1358.332 C 28359.125 1321.213 28384.271 1268.283 28384.271 1199.553 C 28384.271 1139.556 28366.309 1092.619 28329.188 1058.729 C 28292.07 1024.965 28232.199 999.573 28148.375 982.69 L 28047.787 963.05 C 27924.451 938.384 27834.645 899.949 27779.559 847.62 C 27724.48 795.17 27696.941 722.364 27696.941 628.966 C 27696.941 520.953 27735.256 435.813 27810.699 373.669 C 27887.328 311.399 27992.709 280.27 28125.623 280.27 C 28183.098 280.27 28241.773 285.535 28301.646 295.837 C 28360.32 306.251 28421.391 321.819 28483.66 342.534 M 29574.533 971.194 L 29574.533 1524.536 L 29423.662 1524.536 L 29423.662 976.104 C 29423.662 889.293 29406.893 824.384 29372.166 781.278 C 29338.643 738.172 29288.346 716.618 29220.092 716.618 C 29138.662 716.618 29075.201 742.484 29028.502 794.332 C 28980.604 846.18 28957.85 916.833 28957.85 1006.4 L 28957.85 1524.536 L 28805.771 1524.536 L 28805.771 250.81 L 28957.85 250.81 L 28957.85 750.144 C 28993.771 695.066 29035.682 653.873 29084.777 626.57 C 29133.877 599.269 29190.154 585.62 29253.621 585.62 C 29358.996 585.62 29439.223 618.426 29493.111 683.809 C 29546.998 748.829 29574.533 844.622 29574.533 971.194 M 29876.297 607.772 L 30027.174 607.772 L 30027.174 1524.536 L 29876.297 1524.536 L 29876.297 607.772 M 29876.297 250.81 L 30027.174 250.81 L 30027.174 441.563 L 29876.297 441.563 L 29876.297 250.81 M 30872.57 748.588 C 30855.809 738.654 30836.648 731.588 30816.289 727.277 C 30797.133 722.364 30775.578 719.849 30751.633 719.849 C 30666.607 719.849 30600.752 747.753 30555.25 803.432 C 30509.746 858.516 30486.992 937.909 30486.992 1041.605 L 30486.992 1524.536 L 30334.916 1524.536 L 30334.916 607.772 L 30486.992 607.772 L 30486.992 750.144 C 30518.121 694.466 30560.035 653.274 30610.328 626.57 C 30660.625 599.269 30722.891 585.62 30795.938 585.62 C 30805.516 585.62 30817.488 586.452 30829.461 588.132 C 30842.637 589.206 30855.809 591.122 30871.375 593.877 L 30872.57 748.588 M 31180.313 347.442 L 31180.313 607.772 L 31491.656 607.772 L 31491.656 724.758 L 31180.313 724.758 L 31180.313 1222.536 C 31180.313 1297.261 31191.098 1345.279 31211.453 1366.591 C 31231.805 1387.788 31273.719 1398.443 31335.984 1398.443 L 31491.656 1398.443 L 31491.656 1524.536 L 31335.984 1524.536 C 31219.836 1524.536 31139.605 1502.986 31095.297 1459.87 C 31050.992 1416.164 31029.438 1337.139 31029.438 1222.536 L 31029.438 724.758 L 30919.27 724.758 L 30919.27 607.772 L 31029.438 607.772 L 31029.438 347.442 L 31180.313 347.442"
      />
      <path id="text3463" style="fill:#000000" d="M 11122.531 23627.658 L 11122.531 23934.104 L 11581.706 23934.104 L 11581.706 24026.939 L 11122.531 24026.939 L 11122.531 24360.342 L 11010.731 24360.342 L 11010.731 23536.82 L 11596.68 23536.82 L 11596.68 23627.658 L 11122.531 23627.658 M 11727.443 24360.342 L 11727.443 23875.211 L 11727.443 23835.283 C 11727.443 23820.309 11727.443 23807.334 11726.446 23794.355 C 11726.446 23781.379 11725.45 23769.402 11725.45 23758.422 C 11725.45 23746.445 11724.449 23736.461 11724.449 23727.479 L 11823.273 23727.479 C 11824.27 23736.461 11824.27 23747.441 11825.268 23758.422 C 11825.268 23770.4 11826.267 23781.379 11826.267 23794.355 C 11827.264 23806.334 11828.263 23817.318 11828.263 23829.295 L 11828.263 23857.244 L 11831.257 23857.244 C 11838.246 23833.287 11846.232 23812.326 11854.217 23794.355 C 11863.199 23776.389 11873.184 23761.416 11884.163 23750.436 C 11895.142 23738.455 11909.118 23730.473 11924.092 23724.484 C 11940.063 23719.488 11959.029 23716.494 11980.989 23716.494 C 11989.974 23716.494 11997.958 23716.494 12005.944 23718.492 C 12013.931 23719.488 12019.919 23720.488 12023.912 23721.486 L 12023.912 23818.316 C 12016.925 23816.318 12008.938 23815.322 11998.957 23814.324 C 11989.974 23813.324 11978.992 23812.326 11968.012 23812.326 C 11943.057 23812.326 11923.094 23818.316 11906.124 23829.295 C 11889.155 23840.277 11875.179 23855.248 11864.2 23874.215 C 11853.22 23894.176 11846.232 23917.139 11840.242 23944.088 C 11835.25 23970.043 11833.255 23998.99 11833.255 24030.93 L 11833.255 24360.342 L 11727.443 24360.342 M 12660.768 24043.908 C 12660.768 24154.709 12636.811 24236.564 12587.899 24291.465 C 12538.988 24345.367 12468.114 24372.32 12375.281 24372.32 C 12331.359 24372.32 12291.431 24365.33 12257.493 24352.352 C 12222.556 24339.379 12192.609 24319.414 12168.653 24291.465 C 12144.694 24264.514 12126.729 24230.574 12113.751 24189.648 C 12101.773 24147.723 12094.787 24099.807 12094.787 24043.908 C 12094.787 23825.301 12189.615 23716.494 12379.273 23716.494 C 12428.186 23716.494 12470.111 23722.482 12506.047 23736.461 C 12541.982 23750.436 12570.931 23770.4 12593.888 23798.352 C 12616.848 23825.301 12633.816 23859.238 12644.797 23900.166 C 12654.78 23941.094 12660.768 23989.01 12660.768 24043.908 M 12549.969 24043.908 C 12549.969 23994.998 12545.976 23954.07 12537.989 23922.127 C 12531.002 23890.186 12520.02 23864.23 12505.048 23845.268 C 12491.073 23826.301 12473.105 23813.324 12452.142 23805.338 C 12431.182 23797.352 12407.224 23794.355 12380.271 23794.355 C 12353.32 23794.355 12329.364 23798.352 12307.403 23806.334 C 12286.44 23814.324 12267.475 23827.299 12252.501 23847.262 C 12237.529 23866.227 12225.551 23892.18 12217.564 23924.125 C 12209.577 23956.064 12205.587 23995.996 12205.587 24043.908 C 12205.587 24092.822 12209.577 24133.744 12218.563 24165.689 C 12227.546 24197.633 12238.528 24223.586 12253.5 24242.553 C 12268.474 24261.52 12286.44 24275.492 12306.406 24282.482 C 12327.368 24290.465 12350.326 24294.459 12374.284 24294.459 C 12401.234 24294.459 12425.191 24290.465 12447.152 24283.479 C 12469.112 24275.492 12488.077 24262.516 12503.053 24243.549 C 12518.026 24223.586 12530.003 24198.631 12537.989 24165.689 C 12545.976 24133.744 12549.969 24092.822 12549.969 24043.908 M 13193.811 24360.342 L 13193.811 23959.059 C 13193.811 23928.115 13191.815 23903.16 13186.823 23882.199 C 13182.83 23861.236 13175.844 23845.268 13165.861 23832.289 C 13154.881 23819.311 13141.905 23810.328 13124.936 23805.338 C 13108.962 23800.346 13088.002 23797.352 13064.044 23797.352 C 13039.089 23797.352 13016.131 23802.344 12996.166 23811.326 C 12976.202 23819.311 12959.233 23832.289 12944.26 23849.26 C 12930.285 23865.23 12919.305 23886.195 12911.318 23910.148 C 12904.331 23934.104 12900.339 23962.057 12900.339 23993.998 L 12900.339 24360.342 L 12794.527 24360.342 L 12794.527 23863.232 L 12794.527 23821.309 C 12794.527 23806.334 12793.53 23792.359 12793.53 23779.383 C 12793.53 23766.404 12792.532 23755.428 12792.532 23745.445 C 12791.535 23736.461 12791.535 23730.473 12791.535 23727.479 L 12890.356 23727.479 C 12891.355 23729.473 12891.355 23735.461 12891.355 23743.451 C 12892.353 23752.434 12892.353 23762.414 12893.351 23773.395 C 12893.351 23784.373 12894.35 23795.357 12894.35 23807.334 C 12895.349 23818.316 12895.349 23828.295 12895.349 23836.281 L 12897.344 23836.281 C 12907.323 23817.318 12918.306 23801.346 12930.285 23786.371 C 12942.263 23771.4 12956.237 23759.418 12972.21 23748.439 C 12988.182 23738.455 13007.146 23730.473 13027.111 23724.484 C 13048.073 23719.488 13072.03 23716.494 13098.982 23716.494 C 13134.918 23716.494 13164.863 23720.488 13189.817 23728.475 C 13215.773 23737.459 13236.735 23750.436 13252.705 23768.406 C 13268.678 23786.371 13280.657 23810.328 13288.641 23838.277 C 13295.629 23866.227 13299.621 23900.166 13299.621 23939.096 L 13299.621 24360.342 L 13193.811 24360.342 M 13702.896 24356.348 C 13685.928 24360.342 13669.955 24363.336 13652.986 24366.33 C 13637.016 24368.324 13618.049 24370.322 13596.088 24370.322 C 13511.241 24370.322 13469.315 24322.408 13469.315 24226.58 L 13469.315 23804.34 L 13396.447 23804.34 L 13396.447 23727.479 L 13473.309 23727.479 L 13504.254 23586.73 L 13575.126 23586.73 L 13575.126 23727.479 L 13691.916 23727.479 L 13691.916 23804.34 L 13575.126 23804.34 L 13575.126 24203.621 C 13575.126 24234.566 13580.118 24255.529 13589.103 24268.504 C 13600.081 24280.48 13617.051 24286.475 13642.006 24286.475 C 13651.989 24286.475 13660.973 24285.477 13670.952 24284.477 C 13680.936 24282.482 13690.919 24280.48 13702.896 24278.486 L 13702.896 24356.348"
      />
      <path id="text3467" style="fill:#000000" d="M 44287.113 24203.32 C 44287.113 24246.219 44278.742 24283.887 44260.957 24315.277 C 44244.219 24345.617 44221.199 24370.73 44191.898 24390.611 C 44162.602 24409.443 44129.121 24424.092 44090.406 24432.465 C 44052.738 24441.879 44011.934 24446.064 43969.031 24446.064 L 43618.52 24446.064 L 43618.52 23582.855 L 43932.414 23582.855 C 43980.547 23582.855 44023.441 23587.041 44061.109 23594.365 C 44098.777 23602.736 44130.164 23615.293 44156.328 23632.033 C 44182.484 23649.818 44202.363 23670.746 44215.969 23697.951 C 44229.57 23724.109 44236.891 23755.498 44236.891 23792.119 C 44236.891 23816.184 44233.75 23839.203 44226.43 23860.129 C 44220.152 23881.057 44209.688 23900.934 44196.086 23918.723 C 44182.484 23935.463 44164.695 23950.111 44143.77 23963.715 C 44123.891 23975.227 44099.824 23984.643 44072.617 23990.92 C 44107.148 23995.104 44137.492 24002.428 44164.695 24014.984 C 44191.898 24026.496 44213.871 24042.188 44231.66 24059.977 C 44249.445 24078.811 44264.094 24099.734 44272.469 24124.848 C 44281.883 24148.912 44287.113 24175.068 44287.113 24203.32 M 44118.656 23806.768 C 44118.656 23759.682 44102.965 23726.201 44071.57 23706.32 C 44039.141 23686.443 43993.098 23675.979 43932.414 23675.979 L 43735.707 23675.979 L 43735.707 23950.111 L 43932.414 23950.111 C 43966.941 23950.111 43996.238 23946.975 44020.305 23939.65 C 44043.324 23933.371 44063.203 23922.91 44077.852 23911.396 C 44092.5 23898.842 44102.965 23883.148 44109.242 23865.361 C 44115.516 23848.619 44118.656 23828.74 44118.656 23806.768 M 44168.879 24193.904 C 44168.879 24166.699 44163.648 24142.635 44153.188 24123.803 C 44143.77 24104.967 44129.121 24089.273 44110.285 24076.717 C 44091.453 24064.162 44069.48 24055.793 44042.273 24049.512 C 44016.117 24044.281 43986.82 24041.141 43954.391 24041.141 L 43735.707 24041.141 L 43735.707 24352.941 L 43963.805 24352.941 C 43993.098 24352.941 44020.305 24349.805 44045.414 24345.617 C 44070.527 24340.389 44092.5 24332.018 44110.285 24319.461 C 44129.121 24306.904 44142.723 24291.213 44153.188 24270.283 C 44163.648 24250.402 44168.879 24224.246 44168.879 24193.904 M 44606.238 24458.621 C 44539.273 24458.621 44489.055 24440.832 44455.57 24406.307 C 44422.09 24370.73 44405.348 24322.6 44405.348 24260.867 C 44405.348 24217.969 44413.719 24181.35 44429.414 24154.145 C 44447.203 24125.895 44468.125 24103.922 44495.332 24088.227 C 44521.488 24071.486 44552.875 24061.021 44586.359 24054.744 C 44620.887 24048.465 44656.461 24045.328 44692.039 24044.281 L 44840.613 24042.188 L 44840.613 24005.566 C 44840.613 23978.363 44837.477 23955.344 44832.242 23935.463 C 44825.965 23916.629 44817.594 23900.934 44806.086 23889.426 C 44793.531 23876.869 44778.879 23868.5 44761.094 23863.268 C 44743.305 23858.037 44722.383 23854.9 44698.316 23854.9 C 44677.391 23854.9 44657.512 23855.943 44640.766 23860.129 C 44624.027 23862.225 44608.336 23868.5 44595.777 23875.824 C 44583.219 23884.193 44572.758 23894.658 44565.434 23908.258 C 44558.109 23921.861 44552.875 23939.65 44549.742 23960.574 L 44434.645 23950.111 C 44438.828 23923.953 44447.203 23899.889 44457.664 23877.916 C 44469.172 23855.943 44485.914 23837.111 44506.84 23821.416 C 44527.766 23804.676 44553.922 23793.166 44585.313 23783.75 C 44617.75 23775.377 44656.461 23771.193 44700.406 23771.193 C 44784.109 23771.193 44846.891 23790.025 44888.742 23828.74 C 44931.641 23866.408 44952.57 23921.861 44952.57 23994.059 L 44952.57 24279.703 C 44952.57 24312.137 44956.758 24337.248 44965.125 24353.99 C 44973.496 24369.686 44990.234 24378.055 45014.301 24378.055 C 45020.582 24378.055 45026.859 24378.055 45032.09 24377.01 C 45038.367 24375.963 45044.648 24374.918 45049.875 24373.871 L 45049.875 24442.928 C 45036.277 24446.064 45022.672 24448.16 45009.07 24450.252 C 44995.469 24451.297 44980.82 24452.344 44965.125 24452.344 C 44944.199 24452.344 44926.414 24450.252 44910.719 24445.02 C 44896.07 24438.74 44884.563 24430.371 44875.145 24419.908 C 44865.727 24408.398 44858.406 24393.75 44853.172 24378.055 C 44848.984 24361.314 44845.844 24341.434 44844.801 24319.461 L 44840.613 24319.461 C 44829.105 24340.389 44815.5 24360.266 44801.898 24377.01 C 44787.25 24393.75 44771.559 24409.443 44752.723 24420.951 C 44733.891 24433.508 44711.918 24441.879 44687.852 24449.203 C 44664.836 24455.484 44636.586 24458.621 44606.238 24458.621 M 44631.352 24375.963 C 44665.883 24375.963 44697.27 24369.686 44723.426 24357.129 C 44749.586 24343.525 44771.559 24326.785 44788.297 24306.904 C 44806.086 24287.023 44819.688 24265.055 44828.055 24242.035 C 44836.43 24217.969 44840.613 24194.949 44840.613 24174.025 L 44840.613 24118.57 L 44720.289 24121.707 C 44693.086 24121.707 44666.93 24123.803 44642.859 24127.986 C 44618.797 24131.127 44596.82 24137.404 44579.039 24147.867 C 44560.203 24158.328 44545.555 24171.932 44535.094 24190.766 C 44524.629 24209.598 44518.352 24233.666 44518.352 24262.959 C 44518.352 24298.535 44528.813 24326.785 44547.648 24346.666 C 44567.523 24366.547 44594.73 24375.963 44631.352 24375.963 M 45219.379 24111.246 C 45219.379 24149.959 45222.52 24184.488 45227.75 24216.922 C 45232.984 24248.311 45242.398 24275.516 45256 24299.58 C 45268.555 24322.6 45286.344 24340.389 45307.273 24352.941 C 45329.242 24365.498 45355.398 24371.777 45386.789 24371.777 C 45426.547 24371.777 45458.984 24361.314 45485.148 24339.342 C 45511.305 24318.416 45528.047 24285.979 45534.32 24242.035 L 45645.234 24249.359 C 45642.094 24276.563 45633.719 24302.721 45622.211 24327.832 C 45609.656 24352.941 45592.914 24375.963 45571.992 24394.795 C 45551.063 24413.631 45524.906 24429.324 45494.563 24441.879 C 45464.219 24453.389 45429.688 24458.621 45389.93 24458.621 C 45337.609 24458.621 45293.668 24450.252 45258.094 24432.465 C 45221.477 24414.676 45191.129 24390.611 45169.156 24360.266 C 45146.137 24328.877 45129.398 24292.256 45119.98 24250.402 C 45109.52 24208.553 45104.289 24163.561 45104.289 24114.383 C 45104.289 24069.393 45108.469 24030.68 45115.797 23996.152 C 45123.117 23961.623 45132.535 23932.326 45146.137 23907.213 C 45159.742 23881.057 45175.434 23860.129 45193.223 23842.344 C 45211.008 23824.555 45230.891 23810.951 45251.816 23800.49 C 45272.742 23790.025 45294.719 23782.701 45318.781 23778.518 C 45341.797 23773.285 45364.82 23771.193 45388.883 23771.193 C 45425.5 23771.193 45458.984 23775.377 45488.281 23785.842 C 45517.578 23796.303 45541.648 23809.908 45562.57 23828.74 C 45584.547 23845.48 45601.289 23866.408 45614.891 23890.473 C 45627.445 23914.539 45636.859 23940.695 45642.094 23968.947 L 45528.047 23977.318 C 45522.813 23940.695 45508.164 23911.396 45485.148 23889.426 C 45462.125 23868.5 45428.641 23856.992 45385.742 23856.992 C 45354.352 23856.992 45328.195 23862.225 45306.227 23872.686 C 45285.297 23883.148 45268.555 23898.842 45256 23920.814 C 45242.398 23940.695 45232.984 23967.898 45227.75 23999.291 C 45222.52 24031.725 45219.379 24068.346 45219.379 24111.246 M 46181.992 24446.064 L 45957.031 24143.68 L 45876.469 24210.645 L 45876.469 24446.064 L 45765.555 24446.064 L 45765.555 23536.818 L 45876.469 23536.818 L 45876.469 24104.967 L 46167.344 23782.701 L 46297.086 23782.701 L 46027.133 24068.346 L 46310.688 24446.064 L 46181.992 24446.064"
      bx:origin="0.5 2.62" />
    </g>
  </g>
</svg>